<svg width="50" height="51" viewBox="0 0 50 51" fill="none" xmlns="http://www.w3.org/2000/svg">
<circle cx="25" cy="25.9263" r="24.5" stroke="black"/>
<path d="M35.1919 37.3932H32.1251V36.4509H35.1919C36.9369 36.4509 38.3569 35.0317 38.3569 33.2852V23.9748C38.3569 20.4083 36.9664 17.0537 34.4419 14.5285C31.9205 12.0079 28.5675 10.6186 25.0002 10.6186C17.6353 10.6186 11.6431 16.6113 11.6431 23.9748V33.2852C11.6431 35.0317 13.063 36.4509 14.8081 36.4509H17.8751V37.3932H14.8081C12.5437 37.3932 10.7017 35.5501 10.7017 33.2852V23.9748C10.7017 16.0906 17.1157 9.67629 25.0002 9.67629C28.8188 9.67629 32.4084 11.1624 35.1078 13.8626C37.8101 16.5652 39.2983 20.1571 39.2983 23.9748V33.2852C39.2983 35.5501 37.456 37.3932 35.1919 37.3932Z" fill="#222222"/>
<path d="M15.7521 33.5687C13.9163 33.5687 12.4229 31.8361 12.4229 29.7073C12.4229 27.8756 13.5454 26.2835 15.0918 25.9218L15.3068 26.8388C14.1813 27.1014 13.3645 28.3087 13.3645 29.7073C13.3645 31.3177 14.4356 32.6287 15.7521 32.6287C15.8189 32.6287 15.8853 32.6218 15.9477 32.6195L16.0157 33.5572C15.9318 33.5641 15.8422 33.5687 15.7521 33.5687Z" fill="#222222"/>
<path d="M34.2585 33.5687C34.1686 33.5687 34.0788 33.5641 33.9951 33.5572L34.0631 32.6195C34.1251 32.6218 34.1919 32.6287 34.2585 32.6287C35.5747 32.6287 36.6461 31.3177 36.6461 29.7073C36.6461 28.2995 35.8245 27.0945 34.6928 26.8388L34.8987 25.9218C36.4567 26.2697 37.5875 27.8641 37.5875 29.7073C37.5875 31.8361 36.0943 33.5687 34.2585 33.5687Z" fill="#222222"/>
<path d="M24.9991 14.1828C18.2756 14.1828 15.533 17.8692 15.533 26.9054C15.533 34.8058 19.7795 41.2339 24.9991 41.2339C30.2186 41.2339 34.4651 34.8058 34.4651 26.9054C34.4651 17.8692 31.7226 14.1828 24.9991 14.1828ZM24.9991 42.1763C19.2604 42.1763 14.5918 35.3242 14.5918 26.9054C14.5918 20.1478 15.8281 13.2405 24.9991 13.2405C34.1702 13.2405 35.4065 20.1478 35.4065 26.9054C35.4065 35.3242 30.7379 42.1763 24.9991 42.1763Z" fill="#222222"/>
<path d="M15.2342 32.1863L15.2257 32.1402C14.8045 30.8776 14.5933 29.5528 14.5933 28.2004C14.5933 28.023 14.5979 27.8502 14.6029 27.6774L14.6041 27.6106C14.6695 26.2005 14.9633 24.8343 15.4771 23.5486C16.9691 19.8162 20.3512 17.761 25.0006 17.761C30.8518 17.761 35.1271 21.8114 35.3966 27.6106L35.3971 27.6682C35.4026 27.8502 35.4075 28.023 35.4075 28.2004C35.4075 29.5275 35.204 30.8269 34.8024 32.0688C34.8024 32.0711 34.7674 32.184 34.7674 32.184L34.2854 32.0181L33.861 31.9928L33.8845 31.8453C34.2705 30.6772 34.4661 29.4514 34.4661 28.2004C34.4661 28.0322 34.4612 27.8686 34.4564 27.705C34.211 22.3851 30.3226 18.7033 25.0006 18.7033C22.0022 18.7033 18.0679 19.6042 16.3517 23.8988C15.8768 25.0854 15.6054 26.3503 15.5446 27.6543C15.5395 27.8686 15.5347 28.0322 15.5347 28.2004C15.5347 29.4514 15.7303 30.6772 16.116 31.8453L16.1397 31.9928H15.7773L15.2342 32.1863Z" fill="#222222"/>
<path d="M32.3874 28.4813C32.1869 28.4813 32.001 28.3522 31.9383 28.1495C31.6561 27.2463 30.7725 26.615 29.7898 26.615C28.8077 26.615 27.9241 27.2463 27.6418 28.1495C27.5649 28.3983 27.3011 28.5366 27.0522 28.4582C26.8039 28.3822 26.6656 28.1172 26.7433 27.8684C27.1534 26.5551 28.3777 25.6727 29.7898 25.6727C31.2024 25.6727 32.4268 26.5551 32.8369 27.8684C32.9145 28.1172 32.776 28.3822 32.5279 28.4582C32.4811 28.4744 32.4339 28.4813 32.3874 28.4813Z" fill="#222222"/>
<path d="M22.806 28.4813C22.6058 28.4813 22.4199 28.3522 22.357 28.1495C22.0747 27.2463 21.1914 26.615 20.2087 26.615C19.2261 26.615 18.3427 27.2463 18.0605 28.1495C17.9831 28.3983 17.7191 28.5366 17.4707 28.4582C17.2225 28.3822 17.0841 28.1172 17.1617 27.8684C17.5718 26.5551 18.7964 25.6727 20.2087 25.6727C21.6211 25.6727 22.8457 26.5551 23.2558 27.8684C23.3332 28.1172 23.1949 28.3822 22.9468 28.4582C22.8998 28.4744 22.8528 28.4813 22.806 28.4813Z" fill="#222222"/>
<path d="M24.9991 37.3932C23.4178 37.3932 22.047 36.4095 21.588 34.9441C21.5104 34.6953 21.6486 34.4326 21.8965 34.3543C22.1454 34.276 22.4092 34.4142 22.4868 34.663C22.8165 35.7159 23.8498 36.4509 24.9991 36.4509C26.1483 36.4509 27.1814 35.7159 27.5113 34.663C27.589 34.4142 27.8544 34.2783 28.1014 34.3543C28.3493 34.4326 28.4875 34.6953 28.4099 34.9441C27.9509 36.4095 26.5803 37.3932 24.9991 37.3932Z" fill="#222222"/>
<path d="M27.6631 18.4913H26.7217V13.8626H27.6631V18.4913Z" fill="#222222"/>
</svg>
