<svg width="60" height="61" viewBox="0 0 60 61" fill="none" xmlns="http://www.w3.org/2000/svg">
<path d="M37.2771 44.5771H20.5703C18.7643 44.5771 17.3037 43.1146 17.3037 41.3085V18.1935C17.3037 16.3904 18.7643 14.9248 20.5703 14.9248H37.2771C39.083 14.9248 40.5437 16.3904 40.5437 18.1935V41.3085C40.5437 43.1146 39.083 44.5771 37.2771 44.5771Z" fill="white"/>
<path d="M20.5708 15.4918C19.0807 15.4918 17.8714 16.7026 17.8714 18.1956V41.3075C17.8714 42.7977 19.0807 44.0109 20.5708 44.0109H37.2713C38.7614 44.0109 39.9779 42.7977 39.9779 41.3075V18.1956C39.9779 16.7026 38.7614 15.4918 37.2713 15.4918H20.5708ZM37.2713 45.1439H20.5708C18.4617 45.1439 16.7412 43.4238 16.7412 41.3075V18.1956C16.7412 16.0792 18.4617 14.3588 20.5708 14.3588H37.2713C39.3877 14.3588 41.1081 16.0792 41.1081 18.1956V41.3075C41.1081 43.4238 39.3877 45.1439 37.2713 45.1439Z" fill="#222222"/>
<path d="M23.7642 22.0198H21.3377C21.0681 22.0198 20.8481 21.8005 20.8481 21.5267V17.9231C20.8481 17.6513 21.0681 17.43 21.3377 17.43H23.7642C24.0338 17.43 24.2538 17.6513 24.2538 17.9231V21.5267C24.2538 21.8005 24.0338 22.0198 23.7642 22.0198Z" fill="white"/>
<path d="M21.3401 17.8467C21.2975 17.8467 21.2621 17.8801 21.2621 17.9248V21.5283C21.2621 21.5723 21.2975 21.6056 21.3401 21.6056H23.7605C23.803 21.6056 23.8385 21.5723 23.8385 21.5283V17.9248C23.8385 17.8801 23.803 17.8467 23.7605 17.8467H21.3401ZM23.7605 22.4368H21.3401C20.8362 22.4368 20.4316 22.0294 20.4316 21.5283V17.9248C20.4316 17.4237 20.8362 17.0163 21.3401 17.0163H23.7605C24.2644 17.0163 24.6689 17.4237 24.6689 17.9248V21.5283C24.6689 22.0294 24.2644 22.4368 23.7605 22.4368Z" fill="#222222"/>
<path d="M37.0037 25.1812H20.8508C20.6211 25.1812 20.4346 24.9953 20.4346 24.7685C20.4346 24.5382 20.6211 24.3523 20.8508 24.3523H37.0037C37.2333 24.3523 37.4199 24.5382 37.4199 24.7685C37.4199 24.9953 37.2333 25.1812 37.0037 25.1812Z" fill="#222222"/>
<path d="M37.0029 20.1967H29.0593C28.8296 20.1967 28.6431 20.0115 28.6431 19.7812C28.6431 19.5515 28.8296 19.3657 29.0593 19.3657H37.0029C37.2326 19.3657 37.4191 19.5515 37.4191 19.7812C37.4191 20.0115 37.2326 20.1967 37.0029 20.1967Z" fill="#222222"/>
<path d="M37.0037 30.1658H20.8508C20.6211 30.1658 20.4346 29.977 20.4346 29.7503C20.4346 29.5199 20.6211 29.3348 20.8508 29.3348H37.0037C37.2333 29.3348 37.4199 29.5199 37.4199 29.7503C37.4199 29.977 37.2333 30.1658 37.0037 30.1658Z" fill="#222222"/>
<path d="M37.0037 35.1503H20.8508C20.6211 35.1503 20.4346 34.9647 20.4346 34.7348C20.4346 34.5077 20.6211 34.3193 20.8508 34.3193H37.0037C37.2333 34.3193 37.4199 34.5077 37.4199 34.7348C37.4199 34.9647 37.2333 35.1503 37.0037 35.1503Z" fill="#222222"/>
<path d="M37.0037 40.1321H20.8508C20.6211 40.1321 20.4346 39.9465 20.4346 39.7194C20.4346 39.4895 20.6211 39.3039 20.8508 39.3039H37.0037C37.2333 39.3039 37.4199 39.4895 37.4199 39.7194C37.4199 39.9465 37.2333 40.1321 37.0037 40.1321Z" fill="#222222"/>
<path d="M45.5786 39.8625C45.5786 43.4026 42.7099 46.2722 39.1692 46.2722C35.6285 46.2722 32.7598 43.4026 32.7598 39.8625C32.7598 36.3226 35.6285 33.453 39.1692 33.453C42.7099 33.453 45.5786 36.3226 45.5786 39.8625Z" fill="white"/>
<path d="M39.1707 34.017C35.9464 34.017 33.3294 36.6401 33.3294 39.8615C33.3294 43.0858 35.9464 45.7061 39.1707 45.7061C42.3878 45.7061 45.0121 43.0858 45.0121 39.8615C45.0121 36.6401 42.3878 34.017 39.1707 34.017ZM39.1707 46.8391C35.3247 46.8391 32.1943 43.709 32.1943 39.8615C32.1943 36.0168 35.3247 32.8869 39.1707 32.8869C43.0168 32.8869 46.1471 36.0168 46.1471 39.8615C46.1471 43.709 43.0168 46.8391 39.1707 46.8391Z" fill="#222222"/>
<path d="M38.6899 41.7346L36.5269 39.4162C36.3106 39.1891 36.3251 38.8289 36.5486 38.6156C36.7793 38.4023 37.1398 38.4134 37.3489 38.6433L38.8053 40.2L41.9849 37.6683C42.23 37.4744 42.5833 37.5131 42.7779 37.7597C42.9726 38.0035 42.9294 38.3608 42.6842 38.5547L38.6899 41.7346Z" fill="#222222"/>
<circle cx="30" cy="30.598" r="29.625" stroke="#222222" stroke-width="0.75"/>
</svg>
