<svg width="31" height="31" viewBox="0 0 31 31" fill="none" xmlns="http://www.w3.org/2000/svg">
<g opacity="0.8">
<path d="M3.23242 5.94849H6.26368V25.0084H3.23242V5.94849Z" fill="#FD7D5A"/>
<path d="M22.2958 18.6362H18.8513L25.613 25.6435H29.0573L22.2958 18.6362Z" fill="#FD7D5A"/>
<path fill-rule="evenodd" clip-rule="evenodd" d="M23.3025 18.4854C23.7584 17.5775 24.015 16.5523 24.015 15.4672C24.015 11.7479 21 8.73286 17.2807 8.73286C13.5614 8.73286 10.5463 11.7479 10.5463 15.4672C10.5463 19.1865 13.5614 22.2015 17.2807 22.2015C18.4066 22.2015 19.4679 21.9253 20.4007 21.4368L22.8037 23.9271C21.2164 24.9655 19.319 25.5692 17.2807 25.5692C11.7015 25.5692 7.17871 21.0464 7.17871 15.4672C7.17871 9.88804 11.7015 5.36523 17.2807 5.36523C22.8598 5.36523 27.3827 9.88804 27.3827 15.4672C27.3827 17.5111 26.7756 19.4133 25.732 21.0033L23.3025 18.4854Z" fill="#FD7D5A"/>
</g>
</svg>
