<svg xmlns="http://www.w3.org/2000/svg" width="37" height="37" viewBox="0 0 37 37" fill="none">
<g id="Icon/Outline/shopping-cart">
<path id="Mask" fill-rule="evenodd" clip-rule="evenodd" d="M24.9924 21.2966H13.5654L11.1099 12.3177H29.4924L24.9924 21.2966ZM32.0439 10.7434C31.4934 9.85445 30.5394 9.32469 29.4924 9.32469H10.2924L9.3669 5.93812C9.1884 5.28715 8.5959 4.83521 7.9194 4.83521H4.9194C4.0899 4.83521 3.4194 5.50563 3.4194 6.3317C3.4194 7.15776 4.0899 7.82819 4.9194 7.82819H6.7734L10.9719 23.1867C11.1504 23.8377 11.7429 24.2896 12.4194 24.2896H25.9194C26.4879 24.2896 27.0069 23.9694 27.2619 23.4621L32.1759 13.6555C32.6454 12.7202 32.5944 11.6323 32.0439 10.7434ZM11.6697 27.2826C10.4277 27.2826 9.41969 28.2868 9.41969 29.5274C9.41969 30.768 10.4277 31.7721 11.6697 31.7721C12.9117 31.7721 13.9197 30.768 13.9197 29.5274C13.9197 28.2868 12.9117 27.2826 11.6697 27.2826ZM24.4197 29.5274C24.4197 28.2868 25.4277 27.2826 26.6697 27.2826C27.9117 27.2826 28.9197 28.2868 28.9197 29.5274C28.9197 30.768 27.9117 31.7721 26.6697 31.7721C25.4277 31.7721 24.4197 30.768 24.4197 29.5274Z" fill="#ffffff"/>
<mask id="mask0" mask-type="alpha" maskUnits="userSpaceOnUse" x="3" y="4" width="30" height="28" fill="#000000">
<path id="Mask_2" fill-rule="evenodd" clip-rule="evenodd" d="M24.9924 21.2966H13.5654L11.1099 12.3177H29.4924L24.9924 21.2966ZM32.0439 10.7434C31.4934 9.85445 30.5394 9.32469 29.4924 9.32469H10.2924L9.3669 5.93812C9.1884 5.28715 8.5959 4.83521 7.9194 4.83521H4.9194C4.0899 4.83521 3.4194 5.50563 3.4194 6.3317C3.4194 7.15776 4.0899 7.82819 4.9194 7.82819H6.7734L10.9719 23.1867C11.1504 23.8377 11.7429 24.2896 12.4194 24.2896H25.9194C26.4879 24.2896 27.0069 23.9694 27.2619 23.4621L32.1759 13.6555C32.6454 12.7202 32.5944 11.6323 32.0439 10.7434ZM11.6697 27.2826C10.4277 27.2826 9.41969 28.2868 9.41969 29.5274C9.41969 30.768 10.4277 31.7721 11.6697 31.7721C12.9117 31.7721 13.9197 30.768 13.9197 29.5274C13.9197 28.2868 12.9117 27.2826 11.6697 27.2826ZM24.4197 29.5274C24.4197 28.2868 25.4277 27.2826 26.6697 27.2826C27.9117 27.2826 28.9197 28.2868 28.9197 29.5274C28.9197 30.768 27.9117 31.7721 26.6697 31.7721C25.4277 31.7721 24.4197 30.768 24.4197 29.5274Z" fill="#ffffff"/>
</mask>
<g mask="url(#mask0)">
<g id="🎨 Color">
<rect id="Base" x="0.419693" y="0.345703" width="36" height="35.9159" fill="#ffffff"/>
</g>
</g>
</g>
</svg>