<?xml version="1.0" standalone="no"?>
<!DOCTYPE svg PUBLIC "-//W3C//DTD SVG 20010904//EN"
 "http://www.w3.org/TR/2001/REC-SVG-20010904/DTD/svg10.dtd">
<svg version="1.0" xmlns="http://www.w3.org/2000/svg"
 width="512.000000pt" height="512.000000pt" viewBox="0 0 512.000000 512.000000"
 preserveAspectRatio="xMidYMid meet">
<metadata>
Created by potrace 1.14, written by Peter Selinger 2001-2017
</metadata>
<g transform="translate(0.000000,512.000000) scale(0.100000,-0.100000)"
fill="#000000" stroke="none">
<path d="M1075 3634 c-204 -28 -294 -53 -420 -117 -337 -169 -509 -434 -546
-842 -30 -325 65 -660 241 -848 91 -97 171 -157 290 -217 183 -92 355 -130
586 -130 193 0 413 25 584 67 51 12 308 99 317 107 1 1 -7 31 -17 67 -35 114
-50 235 -50 416 l0 172 28 15 c29 15 186 46 233 46 15 0 30 7 33 16 8 22 7
127 -2 139 -4 7 -197 10 -555 10 -611 0 -567 6 -567 -72 0 -81 7 -88 110 -101
50 -7 114 -20 143 -30 l52 -17 3 -270 2 -270 -34 -23 c-69 -47 -134 -65 -241
-65 -171 -1 -292 57 -404 195 -143 174 -210 423 -198 733 11 280 89 503 229
651 109 115 244 172 378 161 78 -7 196 -48 265 -92 106 -68 233 -232 327 -422
29 -59 56 -103 65 -103 25 0 92 40 108 64 14 22 13 32 -16 132 -40 140 -49
297 -25 423 8 47 15 86 13 87 -5 4 -488 94 -558 103 -86 12 -329 21 -374 15z
m340 -74 c221 -49 377 -172 475 -373 41 -85 100 -255 100 -287 0 -16 -36 -38
-45 -28 -1 1 -24 46 -50 98 -113 227 -235 370 -376 439 -121 59 -192 75 -329
75 -282 0 -482 -127 -612 -389 -182 -366 -159 -850 55 -1173 126 -189 327
-292 569 -292 158 0 284 34 357 97 l41 35 0 272 c0 265 -1 274 -22 301 -12 15
-36 34 -55 41 -41 17 -164 44 -202 44 -29 0 -46 26 -35 53 3 9 135 12 507 10
l502 -1 0 -29 c0 -28 0 -28 -85 -36 -195 -17 -327 -55 -352 -100 -19 -35 -3
-392 22 -507 12 -52 22 -102 23 -109 3 -20 -139 -73 -310 -117 -236 -60 -497
-65 -700 -14 -204 53 -412 178 -530 322 -24 29 -66 98 -93 153 -87 177 -116
332 -107 569 8 233 67 420 181 581 124 173 355 311 611 365 127 26 339 26 460
0z"/>
<path d="M2529 3579 c-11 -22 -12 -109 0 -127 4 -7 37 -19 74 -27 79 -17 121
-37 143 -71 29 -43 36 -270 31 -925 -4 -495 -7 -622 -18 -645 -18 -37 -69 -61
-161 -75 -123 -18 -116 -14 -123 -64 -4 -24 -3 -61 2 -81 l8 -37 415 0 415 1
9 40 c10 47 -3 112 -24 122 -8 5 -51 13 -96 18 -96 13 -160 37 -176 66 -8 15
-13 194 -15 631 l-3 610 177 -445 c98 -245 228 -570 288 -722 l110 -278 46 0
47 0 265 708 266 707 -1 -555 c0 -305 -3 -582 -7 -615 l-6 -60 -53 -17 c-29
-10 -93 -23 -142 -30 -72 -10 -91 -16 -96 -31 -8 -24 -7 -101 1 -126 6 -20 14
-20 555 -20 l548 0 6 22 c8 31 7 120 -2 132 -4 6 -46 16 -93 23 -133 19 -188
38 -201 70 -13 34 -24 1186 -13 1415 7 152 8 159 31 174 27 17 116 38 210 48
l62 7 4 43 c3 23 2 60 -1 81 l-6 39 -125 3 c-69 2 -247 0 -396 -3 l-271 -7
-218 -567 c-120 -311 -221 -570 -225 -574 -4 -4 -104 250 -222 565 l-215 573
-139 7 c-76 3 -255 8 -397 10 -237 3 -259 2 -268 -13z m606 -54 c6 -1 132
-332 280 -734 148 -401 273 -727 276 -723 4 4 132 334 285 735 l278 727 271 0
c150 0 306 3 348 6 l77 7 0 -35 0 -35 -94 -6 c-119 -8 -239 -32 -296 -60 -41
-20 -46 -26 -53 -67 -4 -25 -7 -387 -5 -805 3 -866 -4 -798 92 -834 52 -19
220 -48 316 -53 42 -3 45 -5 45 -32 l0 -29 -503 -1 -503 -1 -5 22 c-9 33 3 43
47 43 57 0 179 29 216 51 17 11 36 34 42 51 24 68 26 1468 2 1468 -4 0 -142
-356 -306 -790 -165 -435 -303 -796 -307 -803 -4 -6 -9 -9 -11 -7 -2 3 -149
369 -325 814 -177 445 -324 811 -327 814 -3 3 -8 2 -12 -1 -9 -10 -9 -1281 1
-1400 7 -88 11 -100 36 -126 31 -30 100 -56 194 -71 62 -10 77 -20 69 -49 -4
-15 -38 -16 -374 -17 l-369 0 0 27 c0 26 3 28 73 39 94 16 168 44 197 75 21
23 25 39 33 153 13 196 12 1343 -2 1427 -18 109 -54 144 -176 170 -73 15 -91
25 -82 48 5 13 46 14 284 10 153 -2 283 -6 288 -8z"/>
</g>
</svg>
